<svg width="27" height="27" viewBox="0 0 27 27" fill="none" xmlns="http://www.w3.org/2000/svg">
<path d="M13.4999 17.4375C12.4557 17.4375 11.4541 17.0227 10.7157 16.2842C9.97728 15.5458 9.56244 14.5443 9.56244 13.5C9.56244 12.4557 9.97728 11.4542 10.7157 10.7158C11.4541 9.97734 12.4557 9.5625 13.4999 9.5625C14.5442 9.5625 15.5457 9.97734 16.2842 10.7158C17.0226 11.4542 17.4374 12.4557 17.4374 13.5C17.4374 14.5443 17.0226 15.5458 16.2842 16.2842C15.5457 17.0227 14.5442 17.4375 13.4999 17.4375ZM21.8587 14.5913C21.9037 14.2313 21.9374 13.8713 21.9374 13.5C21.9374 13.1287 21.9037 12.7575 21.8587 12.375L24.2324 10.5413C24.4462 10.3725 24.5024 10.0687 24.3674 9.82125L22.1174 5.92875C21.9824 5.68125 21.6787 5.58 21.4312 5.68125L18.6299 6.80625C18.0449 6.3675 17.4374 5.985 16.7287 5.70375L16.3124 2.7225C16.2674 2.4525 16.0312 2.25 15.7499 2.25H11.2499C10.9687 2.25 10.7324 2.4525 10.6874 2.7225L10.2712 5.70375C9.56244 5.985 8.95494 6.3675 8.36994 6.80625L5.56869 5.68125C5.32119 5.58 5.01744 5.68125 4.88244 5.92875L2.63244 9.82125C2.48619 10.0687 2.55369 10.3725 2.76744 10.5413L5.14119 12.375C5.09619 12.7575 5.06244 13.1287 5.06244 13.5C5.06244 13.8713 5.09619 14.2313 5.14119 14.5913L2.76744 16.4587C2.55369 16.6275 2.48619 16.9313 2.63244 17.1788L4.88244 21.0712C5.01744 21.3188 5.32119 21.4088 5.56869 21.3188L8.36994 20.1825C8.95494 20.6325 9.56244 21.015 10.2712 21.2962L10.6874 24.2775C10.7324 24.5475 10.9687 24.75 11.2499 24.75H15.7499C16.0312 24.75 16.2674 24.5475 16.3124 24.2775L16.7287 21.2962C17.4374 21.0037 18.0449 20.6325 18.6299 20.1825L21.4312 21.3188C21.6787 21.4088 21.9824 21.3188 22.1174 21.0712L24.3674 17.1788C24.5024 16.9313 24.4462 16.6275 24.2324 16.4587L21.8587 14.5913Z" fill="#FAFAFA"/>
</svg>
